<svg width="309" height="149" viewBox="0 0 309 149" fill="none" xmlns="http://www.w3.org/2000/svg">
<path d="M39.4677 91.6745C38.4477 87.1845 38.1177 82.7045 38.3877 78.3345L20.4377 90.5845C15.2677 94.1045 16.0077 97.7345 22.1276 98.9745L43.8376 103.374C41.9075 99.7645 40.4177 95.8545 39.4677 91.6745Z" fill="#FFD100"/>
<path d="M74.2779 35.5843C78.1879 34.6543 82.088 34.2343 85.9279 34.2943L72.9978 12.9843C67.5778 4.04429 62.4878 5.26429 61.7078 15.6843L59.7378 41.8043C64.0778 39.0043 68.9579 36.8643 74.2779 35.5843Z" fill="#FFD100"/>
<path d="M121.898 51.9742L131.228 17.4342C134.178 6.53418 129.718 3.80418 121.338 11.3642L94.7979 35.2842C105.478 37.5242 115.088 43.4442 121.898 51.9742Z" fill="#FFD100"/>
<path d="M39.7377 69.5542C41.9777 60.8742 46.6678 53.0042 53.1977 46.9042L30.5377 40.6442C20.4577 37.8642 17.5978 42.2342 24.1877 50.3542L39.7377 69.5542Z" fill="#FFD100"/>
<path d="M125.508 105.194C123.028 109.364 119.918 113.154 116.248 116.404L121.428 117.944C131.448 120.914 134.398 116.604 127.958 108.354L125.508 105.204L125.508 105.194Z" fill="#FFD100"/>
<path d="M50.3679 112.645L47.1179 131.085C46.0379 137.245 49.1379 139.255 54.3078 135.735L69.4778 125.405C62.1778 122.795 55.5879 118.415 50.3679 112.645Z" fill="#FFD100"/>
<path d="M96.1278 126.834C92.8177 127.624 89.5078 128.034 86.2378 128.114L93.0178 137.324C96.7178 142.364 100.318 141.494 101.338 135.334L103.128 124.564C100.888 125.484 98.5579 126.254 96.1278 126.834Z" fill="#FFD100"/>
<path d="M97.208 97.7842C95.058 97.7842 93.298 97.5742 93.298 95.4242V82.6642C93.298 78.8842 91.668 75.8842 87.628 75.8842C83.3179 75.8842 81.758 79.2042 81.758 82.6642V95.4242C81.758 97.5742 79.998 97.7842 77.838 97.7842C75.678 97.7842 73.858 97.5742 73.858 95.4242V82.6642C73.858 78.8842 72.228 75.8842 68.188 75.8842C63.818 75.8842 62.318 79.2042 62.318 82.6642V95.4242C62.318 97.5742 60.558 97.7842 58.408 97.7842C56.258 97.7842 54.498 97.5742 54.498 95.4242V72.5842C54.498 69.7542 55.998 69.6542 58.408 69.6542C60.688 69.6542 62.318 69.7442 62.318 71.8942V73.6042C63.948 70.6042 66.948 68.8442 70.468 68.8442C74.638 68.8442 77.708 70.7342 79.598 73.7342C81.618 70.8042 85.208 68.8442 89.638 68.8442C97.528 68.8442 101.178 74.1942 101.178 82.0242V95.4342C101.178 97.5842 99.3581 97.7942 97.198 97.7942" fill="white"/>
<path d="M110.908 69.6543C108.758 69.6543 106.988 69.7343 106.988 71.8943V95.4243C106.988 97.5743 107.998 97.7843 110.908 97.7843C113.818 97.7843 114.818 97.8543 114.818 95.0543V71.8943C114.818 69.7443 113.058 69.6543 110.908 69.6543Z" fill="white"/>
<path d="M115.218 61.9341C115.218 58.6641 113.988 57.9241 110.908 57.9141H110.888C107.808 57.9141 106.578 58.6641 106.578 61.9341C106.578 65.2041 107.808 65.9441 110.888 65.9541H110.908C113.988 65.9541 115.218 65.2041 115.218 61.9341Z" fill="white"/>
<path d="M135.598 75.4845C131.158 75.4845 128.618 79.4045 128.618 83.7745C128.618 88.1445 131.098 92.0545 135.598 92.0545C140.098 92.0545 142.708 88.3345 142.708 83.7745C142.708 79.2145 140.098 75.4845 135.598 75.4845ZM120.788 61.5545C120.788 59.4045 122.548 59.3145 124.698 59.3145C126.848 59.3145 128.608 59.3945 128.608 61.5545V73.4645C130.568 70.2745 133.888 68.8345 137.288 68.8345C145.898 68.8345 150.528 76.0745 150.528 83.7745C150.528 91.4745 145.968 98.7145 137.288 98.7145C133.438 98.7145 130.238 96.9545 128.348 94.0745V95.4244C128.348 97.5745 126.848 97.7845 124.558 97.7845C122.268 97.7845 120.778 97.4545 120.778 95.3045V61.5545H120.788Z" fill="white"/>
<path d="M169.018 92.0542C173.518 92.0542 175.998 88.1342 175.998 83.7742C175.998 79.4142 173.458 75.4842 169.018 75.4842C164.578 75.4842 161.908 79.2042 161.908 83.7742C161.908 88.3442 164.518 92.0542 169.018 92.0542ZM183.828 95.4842C183.828 97.6342 182.328 97.7842 180.048 97.7842C177.768 97.7842 176.258 97.5742 176.258 95.4242V94.0142C174.368 97.0842 171.168 98.7142 167.318 98.7142C158.648 98.7142 154.078 91.4742 154.078 83.7742C154.078 76.0742 158.708 68.8442 167.318 68.8442C170.718 68.8442 174.098 70.2742 175.998 73.4742V71.8542C175.998 69.7042 177.758 69.6642 179.908 69.6642C182.058 69.6642 183.818 69.6942 183.818 71.8542V95.4942L183.828 95.4842Z" fill="white"/>
<path d="M203.578 75.8842C199.208 75.8842 197.448 79.2142 197.448 82.6642V95.4942C197.448 97.6442 195.688 97.7942 193.538 97.7942C191.388 97.7942 189.628 97.6442 189.628 95.4942V71.9142C189.628 69.6642 191.318 69.6642 193.538 69.6642C195.758 69.6642 197.448 69.6642 197.448 71.9142V73.6042C199.018 70.7342 201.818 68.8442 205.858 68.8442C213.158 68.8442 217.338 74.4542 217.338 82.2842V95.5042C217.338 97.6542 215.578 97.8042 213.428 97.8042C211.278 97.8042 209.518 97.6542 209.518 95.5042V82.6742C209.518 78.8942 207.628 75.8942 203.578 75.8942" fill="white"/>
<path d="M266.458 75.6142C261.958 75.6142 259.218 79.3942 259.218 83.7642C259.218 88.1342 261.958 91.9142 266.458 91.9142C270.958 91.9142 273.698 88.1342 273.698 83.7642C273.698 79.3942 270.958 75.6142 266.458 75.6142ZM266.458 98.7042C257.658 98.7042 251.528 91.9842 251.528 83.7742C251.528 75.5642 257.658 68.8442 266.458 68.8442C275.258 68.8442 281.398 75.5542 281.398 83.7742C281.398 91.9942 275.268 98.7042 266.458 98.7042Z" fill="white"/>
<path d="M246.938 91.0442C244.998 88.9042 244.558 89.0942 243.288 89.9442C242.028 90.7942 240.488 92.0242 237.698 92.0242C232.678 92.0242 230.078 88.1142 230.078 83.7542C230.078 79.3942 232.678 75.4842 237.698 75.4842C240.498 75.4842 242.038 76.6942 243.298 77.5642C244.558 78.4342 244.998 78.6042 246.938 76.4642C248.878 74.3242 248.518 73.5842 247.658 72.6842C245.768 70.6042 242.248 68.8442 237.628 68.8442C228.188 68.8442 222.258 75.4242 222.258 83.7542C222.258 92.0842 228.188 98.6742 237.628 98.6742C242.258 98.6742 245.768 96.9142 247.658 94.8342C248.798 93.4442 248.788 93.0942 246.928 91.0542" fill="white"/>
</svg>
